<svg width="24" height="24" viewBox="0 0 24 24" fill="none" xmlns="http://www.w3.org/2000/svg">
<path d="M8.3999 3.6001C8.08164 3.6001 7.77642 3.72653 7.55137 3.95157C7.32633 4.17661 7.1999 4.48184 7.1999 4.8001C7.1999 5.11836 7.32633 5.42358 7.55137 5.64863C7.77642 5.87367 8.08164 6.0001 8.3999 6.0001H15.5999C15.9182 6.0001 16.2234 5.87367 16.4484 5.64863C16.6735 5.42358 16.7999 5.11836 16.7999 4.8001C16.7999 4.48184 16.6735 4.17661 16.4484 3.95157C16.2234 3.72653 15.9182 3.6001 15.5999 3.6001H8.3999ZM4.7999 8.4001C4.7999 8.08184 4.92633 7.77661 5.15137 7.55157C5.37642 7.32653 5.68164 7.2001 5.9999 7.2001H17.9999C18.3182 7.2001 18.6234 7.32653 18.8484 7.55157C19.0735 7.77661 19.1999 8.08184 19.1999 8.4001C19.1999 8.71836 19.0735 9.02358 18.8484 9.24863C18.6234 9.47367 18.3182 9.6001 17.9999 9.6001H5.9999C5.68164 9.6001 5.37642 9.47367 5.15137 9.24863C4.92633 9.02358 4.7999 8.71836 4.7999 8.4001ZM2.3999 13.2001C2.3999 12.5636 2.65276 11.9531 3.10285 11.503C3.55293 11.053 4.16338 10.8001 4.7999 10.8001H19.1999C19.8364 10.8001 20.4469 11.053 20.897 11.503C21.347 11.9531 21.5999 12.5636 21.5999 13.2001V18.0001C21.5999 18.6366 21.347 19.2471 20.897 19.6972C20.4469 20.1472 19.8364 20.4001 19.1999 20.4001H4.7999C4.16338 20.4001 3.55293 20.1472 3.10285 19.6972C2.65276 19.2471 2.3999 18.6366 2.3999 18.0001V13.2001Z" fill="#9CA3AF"/>
</svg>
