<svg width="20" height="20" viewBox="0 0 20 20" fill="none" xmlns="http://www.w3.org/2000/svg">
<path d="M6 2.5H10.5859C10.9837 2.5001 11.3653 2.65814 11.6465 2.93945L15.0605 6.35352C15.3419 6.63474 15.4999 7.01629 15.5 7.41406V16C15.5 16.3978 15.3419 16.7792 15.0605 17.0605C14.7792 17.3419 14.3978 17.5 14 17.5H6C5.60218 17.5 5.22076 17.3419 4.93945 17.0605C4.65815 16.7792 4.5 16.3978 4.5 16V4C4.5 3.60218 4.65815 3.22076 4.93945 2.93945C5.22076 2.65815 5.60218 2.5 6 2.5ZM10 6.5C9.60218 6.5 9.22076 6.65815 8.93945 6.93945C8.65815 7.22076 8.5 7.60218 8.5 8V10.3789L8.06055 9.93945C7.92347 9.79916 7.76033 9.68684 7.58008 9.60938C7.39714 9.53079 7.20007 9.48906 7.00098 9.4873C6.80184 9.48557 6.60423 9.52422 6.41992 9.59961C6.23558 9.67503 6.0676 9.78592 5.92676 9.92676C5.78592 10.0676 5.67503 10.2356 5.59961 10.4199C5.52422 10.6042 5.48557 10.8018 5.4873 11.001C5.48906 11.2001 5.53079 11.3971 5.60938 11.5801C5.68675 11.7601 5.79939 11.9226 5.93945 12.0596V12.0605L8.93945 15.0605C9.22074 15.3418 9.60225 15.5 10 15.5C10.348 15.5 10.6833 15.3787 10.9502 15.1602L11.0605 15.0605L14.0664 12.0547C14.3396 11.7718 14.4907 11.3923 14.4873 10.999C14.4838 10.6058 14.3269 10.2292 14.0488 9.95117C13.7708 9.67312 13.3942 9.51617 13.001 9.5127C12.6077 9.50928 12.2282 9.66036 11.9453 9.93359L11.5 10.3789V8C11.5 7.60218 11.3419 7.22076 11.0605 6.93945C10.7792 6.65815 10.3978 6.5 10 6.5Z" fill="#1F2A37" stroke="#1F2A37"/>
</svg>
