<svg width="16" height="17" viewBox="0 0 16 17" fill="none" xmlns="http://www.w3.org/2000/svg">
<path d="M13.9313 2.56856C13.6313 2.2686 13.2244 2.1001 12.8001 2.1001C12.3758 2.1001 11.9689 2.2686 11.6689 2.56856L5.6001 8.63736V10.8998H7.8625L13.9313 4.83096C14.2313 4.53091 14.3998 4.12402 14.3998 3.69976C14.3998 3.27549 14.2313 2.8686 13.9313 2.56856Z" fill="white"/>
<path fill-rule="evenodd" clip-rule="evenodd" d="M1.6001 5.3002C1.6001 4.87585 1.76867 4.46888 2.06873 4.16882C2.36878 3.86877 2.77575 3.7002 3.2001 3.7002H6.4001C6.61227 3.7002 6.81575 3.78448 6.96578 3.93451C7.11581 4.08454 7.2001 4.28802 7.2001 4.5002C7.2001 4.71237 7.11581 4.91585 6.96578 5.06588C6.81575 5.21591 6.61227 5.3002 6.4001 5.3002H3.2001V13.3002H11.2001V10.1002C11.2001 9.88802 11.2844 9.68454 11.4344 9.53451C11.5844 9.38448 11.7879 9.3002 12.0001 9.3002C12.2123 9.3002 12.4158 9.38448 12.5658 9.53451C12.7158 9.68454 12.8001 9.88802 12.8001 10.1002V13.3002C12.8001 13.7245 12.6315 14.1315 12.3315 14.4316C12.0314 14.7316 11.6244 14.9002 11.2001 14.9002H3.2001C2.77575 14.9002 2.36878 14.7316 2.06873 14.4316C1.76867 14.1315 1.6001 13.7245 1.6001 13.3002V5.3002Z" fill="white"/>
</svg>
