<svg width="24" height="24" viewBox="0 0 24 24" fill="none" xmlns="http://www.w3.org/2000/svg">
<path fill-rule="evenodd" clip-rule="evenodd" d="M12.0001 2.3999C9.34929 2.3999 7.20009 4.5491 7.20009 7.1999V8.3999H6.00009C5.38809 8.3999 4.8745 8.85952 4.8073 9.46792L3.6073 20.2679C3.5701 20.6063 3.67809 20.9459 3.90609 21.2003C4.13409 21.4547 4.45929 21.5999 4.80009 21.5999H19.2001C19.5409 21.5999 19.8661 21.4547 20.0941 21.2003C20.3221 20.9459 20.4301 20.6063 20.3929 20.2679L19.1929 9.46792C19.1257 8.85952 18.6121 8.3999 18.0001 8.3999H16.8001V7.1999C16.8001 4.5491 14.6509 2.3999 12.0001 2.3999ZM14.4001 8.3999V7.1999C14.4001 5.8739 13.3261 4.7999 12.0001 4.7999C10.6741 4.7999 9.60009 5.8739 9.60009 7.1999V8.3999H14.4001ZM7.20009 11.9999C7.20009 11.3375 7.73769 10.7999 8.40009 10.7999C9.06249 10.7999 9.60009 11.3375 9.60009 11.9999C9.60009 12.6623 9.06249 13.1999 8.40009 13.1999C7.73769 13.1999 7.20009 12.6623 7.20009 11.9999ZM15.6001 10.7999C14.9377 10.7999 14.4001 11.3375 14.4001 11.9999C14.4001 12.6623 14.9377 13.1999 15.6001 13.1999C16.2625 13.1999 16.8001 12.6623 16.8001 11.9999C16.8001 11.3375 16.2625 10.7999 15.6001 10.7999Z" fill="#111928"/>
</svg>
