<svg width="24" height="24" viewBox="0 0 24 24" fill="none" xmlns="http://www.w3.org/2000/svg">
<path fill-rule="evenodd" clip-rule="evenodd" d="M21.5999 12.0004C21.5999 14.5465 20.5885 16.9883 18.7881 18.7886C16.9878 20.589 14.546 21.6004 11.9999 21.6004C9.45382 21.6004 7.01203 20.589 5.21168 18.7886C3.41133 16.9883 2.3999 14.5465 2.3999 12.0004C2.3999 9.45431 3.41133 7.01252 5.21168 5.21217C7.01203 3.41182 9.45382 2.40039 11.9999 2.40039C14.546 2.40039 16.9878 3.41182 18.7881 5.21217C20.5885 7.01252 21.5999 9.45431 21.5999 12.0004ZM19.1999 12.0004C19.1999 13.192 18.9107 14.3152 18.3983 15.3052L16.5695 13.4752C16.8433 12.6276 16.8757 11.7205 16.6631 10.8556L18.5375 8.98119C18.9623 9.89919 19.1999 10.9204 19.1999 12.0004ZM13.0019 16.696L14.8979 18.592C13.9847 18.9941 12.9977 19.2013 11.9999 19.2004C10.9573 19.2017 9.92699 18.9756 8.9807 18.538L10.8551 16.6636C11.5591 16.8361 12.293 16.8472 13.0019 16.696ZM7.3895 13.3408C7.15335 12.5277 7.13638 11.6666 7.3403 10.8448L7.2443 10.9408L5.4083 9.10119C5.00607 10.0148 4.79885 11.0022 4.7999 12.0004C4.7999 13.1452 5.0675 14.2276 5.5427 15.1888L7.3907 13.3408H7.3895ZM8.6951 5.60079C9.71657 5.07281 10.8501 4.79829 11.9999 4.80039C13.1447 4.80039 14.2271 5.06799 15.1883 5.54319L13.3403 7.39119C12.419 7.12284 11.4385 7.13663 10.5251 7.43079L8.6951 5.60199V5.60079ZM14.3999 12.0004C14.3999 12.6369 14.147 13.2474 13.697 13.6974C13.2469 14.1475 12.6364 14.4004 11.9999 14.4004C11.3634 14.4004 10.7529 14.1475 10.3028 13.6974C9.85276 13.2474 9.5999 12.6369 9.5999 12.0004C9.5999 11.3639 9.85276 10.7534 10.3028 10.3033C10.7529 9.85325 11.3634 9.60039 11.9999 9.60039C12.6364 9.60039 13.2469 9.85325 13.697 10.3033C14.147 10.7534 14.3999 11.3639 14.3999 12.0004Z" fill="#9CA3AF"/>
</svg>
