<svg width="25" height="24" viewBox="0 0 25 24" fill="none" xmlns="http://www.w3.org/2000/svg">
<path fill-rule="evenodd" clip-rule="evenodd" d="M11.3847 2.3999C11.1619 2.40002 10.9436 2.46216 10.7541 2.57937C10.5646 2.69657 10.4115 2.86421 10.3119 3.0635L9.44311 4.7999H5.38472C5.06646 4.7999 4.76123 4.92633 4.53619 5.15137C4.31114 5.37642 4.18472 5.68164 4.18472 5.9999C4.18472 6.31816 4.31114 6.62339 4.53619 6.84843C4.76123 7.07347 5.06646 7.1999 5.38472 7.1999V19.1999C5.38472 19.8364 5.63757 20.4469 6.08766 20.897C6.53775 21.347 7.1482 21.5999 7.78472 21.5999H17.3847C18.0212 21.5999 18.6317 21.347 19.0818 20.897C19.5319 20.4469 19.7847 19.8364 19.7847 19.1999V7.1999C20.103 7.1999 20.4082 7.07347 20.6332 6.84843C20.8583 6.62339 20.9847 6.31816 20.9847 5.9999C20.9847 5.68164 20.8583 5.37642 20.6332 5.15137C20.4082 4.92633 20.103 4.7999 19.7847 4.7999H15.7263L14.8575 3.0635C14.7579 2.86421 14.6048 2.69657 14.4153 2.57937C14.2259 2.46216 14.0075 2.40002 13.7847 2.3999H11.3847ZM8.98471 9.5999C8.98471 9.28164 9.11114 8.97642 9.33619 8.75137C9.56123 8.52633 9.86646 8.3999 10.1847 8.3999C10.503 8.3999 10.8082 8.52633 11.0332 8.75137C11.2583 8.97642 11.3847 9.28164 11.3847 9.5999V16.7999C11.3847 17.1182 11.2583 17.4234 11.0332 17.6484C10.8082 17.8735 10.503 17.9999 10.1847 17.9999C9.86646 17.9999 9.56123 17.8735 9.33619 17.6484C9.11114 17.4234 8.98471 17.1182 8.98471 16.7999V9.5999ZM14.9847 8.3999C14.6665 8.3999 14.3612 8.52633 14.1362 8.75137C13.9111 8.97642 13.7847 9.28164 13.7847 9.5999V16.7999C13.7847 17.1182 13.9111 17.4234 14.1362 17.6484C14.3612 17.8735 14.6665 17.9999 14.9847 17.9999C15.303 17.9999 15.6082 17.8735 15.8332 17.6484C16.0583 17.4234 16.1847 17.1182 16.1847 16.7999V9.5999C16.1847 9.28164 16.0583 8.97642 15.8332 8.75137C15.6082 8.52633 15.303 8.3999 14.9847 8.3999Z" fill="#6B7280"/>
</svg>
